 <svg
    width="109"
    height="32"
    viewBox="0 0 109 32"
    fill="none"
    xmlns="http://www.w3.org/2000/svg"
  >
    <path
      d="M6.19309 8.89309H3.18778V14.3556H0.343121V0.425281H7.17596C8.15253 0.444182 8.90229 0.563891 9.42523 0.784407C9.95446 1.00492 10.4018 1.3294 10.7672 1.75783C11.0696 2.11065 11.3091 2.50128 11.4855 2.92971C11.6619 3.35814 11.7501 3.84643 11.7501 4.39457C11.7501 5.05611 11.5831 5.70821 11.2492 6.35086C10.9153 6.9872 10.364 7.43769 9.59534 7.70231C10.238 7.96062 10.6916 8.3292 10.9562 8.80803C11.2272 9.28057 11.3626 10.0051 11.3626 10.9817V11.9173C11.3626 12.5537 11.3878 12.9852 11.4382 13.2121C11.5138 13.5712 11.6902 13.8358 11.9675 14.0059V14.3556H8.76368C8.67547 14.0469 8.61247 13.798 8.57467 13.609C8.49906 13.2184 8.45811 12.8183 8.45181 12.4087L8.4329 11.114C8.4203 10.2256 8.25649 9.6334 7.94147 9.33727C7.63275 9.04115 7.04995 8.89309 6.19309 8.89309ZM7.96037 6.36031C8.54001 6.09569 8.82983 5.57275 8.82983 4.7915C8.82983 3.94723 8.54946 3.38019 7.98872 3.09037C7.6737 2.92656 7.20117 2.84466 6.57112 2.84466H3.18778V6.58713H6.48606C7.14131 6.58713 7.63275 6.51152 7.96037 6.36031Z"
      fill="white"
    />
    <path
      d="M22.5711 14.3556V8.13704H17.1275V14.3556H14.2451V0.425281H17.1275V5.73656H22.5711V0.425281H25.463V14.3556H22.5711Z"
      fill="white"
    />
    <path
      d="M36.4069 11.492H31.2752L30.3112 14.3556H27.2681L32.2392 0.425281H35.528L40.4613 14.3556H37.3047L36.4069 11.492ZM35.5942 9.09156L33.8552 3.61016L32.0596 9.09156H35.5942Z"
      fill="white"
    />
    <path
      d="M48.1541 9.34672H45.1961V14.3556H42.3041V0.425281H48.3715C49.7702 0.425281 50.8854 0.784407 51.717 1.50266C52.5487 2.22091 52.9645 3.33294 52.9645 4.83875C52.9645 6.48317 52.5487 7.6456 51.717 8.32605C50.8854 9.0065 49.6977 9.34672 48.1541 9.34672ZM49.515 6.44536C49.893 6.11144 50.0821 5.5822 50.0821 4.85765C50.0821 4.1331 49.8899 3.61646 49.5056 3.30774C49.1275 2.99902 48.5951 2.84466 47.9084 2.84466H45.1961V6.94625H47.9084C48.5951 6.94625 49.1307 6.77929 49.515 6.44536Z"
      fill="white"
    />
    <path
      d="M60.2037 12.3426C60.8905 12.3426 61.4481 12.267 61.8765 12.1158C62.6893 11.826 63.0956 11.2873 63.0956 10.4997C63.0956 10.0398 62.894 9.6838 62.4908 9.43178C62.0876 9.18606 61.4544 8.9687 60.5912 8.77968L59.1169 8.44891C57.6678 8.12129 56.666 7.76531 56.1116 7.38098C55.1728 6.73834 54.7034 5.73341 54.7034 4.36621C54.7034 3.11872 55.1571 2.0823 56.0643 1.25694C56.9716 0.431581 58.3042 0.0189014 60.062 0.0189014C61.53 0.0189014 62.7806 0.40953 63.8139 1.19079C64.8535 1.96574 65.3985 3.09352 65.4489 4.57413H62.6515C62.6011 3.73617 62.2356 3.14078 61.5552 2.78795C61.1016 2.55483 60.5377 2.43828 59.8635 2.43828C59.1138 2.43828 58.5152 2.58949 58.0679 2.89191C57.6206 3.19433 57.3969 3.61646 57.3969 4.1583C57.3969 4.65604 57.6174 5.02776 58.0584 5.27348C58.342 5.43729 58.9468 5.62946 59.873 5.84997L62.2734 6.42646C63.3256 6.67848 64.1195 7.01556 64.655 7.43769C65.4867 8.09293 65.9025 9.04115 65.9025 10.2823C65.9025 11.555 65.4142 12.6135 64.4376 13.4578C63.4674 14.2957 62.0939 14.7147 60.3171 14.7147C58.5026 14.7147 57.0756 14.302 56.036 13.4767C54.9964 12.645 54.4766 11.5046 54.4766 10.0555H57.2551C57.3433 10.6919 57.5166 11.1676 57.7749 11.4826C58.2474 12.0559 59.0571 12.3426 60.2037 12.3426Z"
      fill="white"
    />
    <path
      d="M74.2191 14.7431C72.2282 14.7431 70.7066 14.2012 69.6544 13.1175C68.2431 11.7881 67.5375 9.87281 67.5375 7.37153C67.5375 4.81985 68.2431 2.90451 69.6544 1.62552C70.7066 0.541839 72.2282 0 74.2191 0C76.21 0 77.7316 0.541839 78.7838 1.62552C80.1888 2.90451 80.8913 4.81985 80.8913 7.37153C80.8913 9.87281 80.1888 11.7881 78.7838 13.1175C77.7316 14.2012 76.21 14.7431 74.2191 14.7431ZM76.9692 11.0006C77.6434 10.15 77.9805 8.94034 77.9805 7.37153C77.9805 5.80902 77.6402 4.60248 76.9598 3.75192C76.2857 2.89506 75.3721 2.46663 74.2191 2.46663C73.0661 2.46663 72.1462 2.89191 71.4595 3.74247C70.7728 4.59303 70.4294 5.80272 70.4294 7.37153C70.4294 8.94034 70.7728 10.15 71.4595 11.0006C72.1462 11.8512 73.0661 12.2764 74.2191 12.2764C75.3721 12.2764 76.2888 11.8512 76.9692 11.0006Z"
      fill="white"
    />
    <path
      d="M89.1228 14.3556H83.1216V0.425281H89.1228C89.986 0.437882 90.7042 0.538689 91.2776 0.727702C92.2541 1.04903 93.0449 1.63812 93.6497 2.49498C94.1348 3.18803 94.4656 3.93778 94.642 4.74424C94.8184 5.5507 94.9066 6.31936 94.9066 7.05021C94.9066 8.90254 94.5349 10.4714 93.7915 11.7566C92.7834 13.4893 91.2272 14.3556 89.1228 14.3556ZM91.287 3.97874C90.8397 3.22268 89.9545 2.84466 88.6314 2.84466H85.9474V11.9362H88.6314C90.0049 11.9362 90.9626 11.2589 91.5044 9.90431C91.8005 9.16086 91.9486 8.27565 91.9486 7.24867C91.9486 5.83107 91.7281 4.74109 91.287 3.97874Z"
      fill="white"
    />
    <path
      d="M108.355 0.425281L103.696 9.11991V14.3556H100.785V9.11991L95.9651 0.425281H99.3957L102.288 6.49262L105.057 0.425281H108.355Z"
      fill="white"
    />
    <path
      d="M0 31.7083V20.656H1.59645L5.21917 30.4035H5.24988L8.8112 20.656H10.3923V31.7083H9.34846V21.8533H9.31776L5.69504 31.7083H4.71261L1.07454 21.8533H1.04384V31.7083H0Z"
      fill="white"
    />
    <path
      d="M12.8331 31.7083V20.656H20.186V21.5463H13.877V25.5374H19.572V26.4278H13.877V30.818H20.3396V31.7083H12.8331Z"
      fill="white"
    />
    <path
      d="M26.5001 25.7984C26.889 25.7984 27.2472 25.7575 27.5747 25.6756C27.9124 25.5937 28.2041 25.4658 28.4497 25.2918C28.6953 25.1076 28.8897 24.8774 29.033 24.6011C29.1763 24.3247 29.2479 23.9921 29.2479 23.6033C29.2479 23.1939 29.1711 22.8562 29.0176 22.5901C28.8744 22.3241 28.6748 22.1143 28.419 21.9608C28.1733 21.8073 27.8868 21.6998 27.5593 21.6384C27.2421 21.577 26.9095 21.5463 26.5615 21.5463H23.2458V25.7984H26.5001ZM23.2458 26.6887V31.7083H22.202V20.656H26.5308C27.7487 20.656 28.6799 20.8862 29.3246 21.3467C29.9694 21.797 30.2917 22.5338 30.2917 23.5572C30.2917 24.2531 30.1485 24.8057 29.8619 25.2151C29.5856 25.6244 29.1302 25.9724 28.4957 26.2589C28.8232 26.3715 29.079 26.5352 29.2632 26.7501C29.4474 26.965 29.5856 27.2106 29.6777 27.4869C29.7698 27.7633 29.8261 28.0549 29.8466 28.3619C29.8773 28.6689 29.8977 28.9657 29.908 29.2523C29.9182 29.6718 29.9335 30.0198 29.954 30.2961C29.9847 30.5724 30.0154 30.7975 30.0461 30.9715C30.087 31.1455 30.1331 31.2836 30.1843 31.386C30.2354 31.4781 30.2968 31.5497 30.3685 31.6009V31.7083H29.2172C29.1046 31.5241 29.0227 31.2683 28.9716 30.9408C28.9306 30.6133 28.8948 30.2705 28.8641 29.9123C28.8437 29.5541 28.8232 29.2062 28.8027 28.8685C28.7925 28.5308 28.7669 28.2545 28.726 28.0396C28.6646 27.7428 28.5622 27.5074 28.419 27.3334C28.2859 27.1492 28.1222 27.0111 27.9277 26.919C27.7333 26.8269 27.5133 26.7655 27.2677 26.7348C27.0323 26.7041 26.7867 26.6887 26.5308 26.6887H23.2458Z"
      fill="white"
    />
    <path
      d="M40.3001 23.8642C40.0852 22.9227 39.6861 22.2524 39.1028 21.8533C38.5195 21.4542 37.7571 21.2546 36.8156 21.2546C36.1504 21.2546 35.5773 21.3877 35.0963 21.6538C34.6153 21.9198 34.2162 22.278 33.899 22.7283C33.592 23.1786 33.3617 23.7005 33.2082 24.294C33.0649 24.8774 32.9933 25.4965 32.9933 26.1515C32.9933 26.7655 33.0547 27.3693 33.1775 27.9628C33.3105 28.5564 33.5254 29.0885 33.8222 29.5593C34.119 30.0198 34.5181 30.3933 35.0196 30.6799C35.521 30.9664 36.1504 31.1097 36.9077 31.1097C37.3784 31.1097 37.8082 31.0329 38.1971 30.8794C38.586 30.7259 38.9237 30.5161 39.2103 30.25C39.507 29.9737 39.7526 29.6514 39.9471 29.283C40.1517 28.9145 40.3053 28.5103 40.4076 28.0703H41.4975C41.3747 28.6024 41.1956 29.109 40.9602 29.59C40.7248 30.0607 40.4127 30.4752 40.0238 30.8334C39.6452 31.1915 39.1795 31.4781 38.6269 31.693C38.0845 31.8977 37.4449 32 36.7081 32C35.8587 32 35.1321 31.8465 34.5283 31.5395C33.9246 31.2222 33.4282 30.7975 33.0393 30.2654C32.6607 29.7332 32.3844 29.1192 32.2104 28.4233C32.0364 27.7172 31.9495 26.9701 31.9495 26.1822C31.9495 25.1281 32.0774 24.2326 32.3332 23.4958C32.5993 22.759 32.9626 22.1603 33.4231 21.6998C33.8836 21.2291 34.426 20.8913 35.0503 20.6867C35.6745 20.4718 36.3551 20.3643 37.0919 20.3643C37.6547 20.3643 38.1766 20.4411 38.6576 20.5946C39.1488 20.7378 39.5787 20.9579 39.9471 21.2546C40.3257 21.5514 40.6327 21.9198 40.8681 22.3599C41.1137 22.7897 41.2826 23.2911 41.3747 23.8642H40.3001Z"
      fill="white"
    />
    <path
      d="M43.5188 31.7083V20.656H44.5627V25.3993H51.102V20.656H52.1458V31.7083H51.102V26.2896H44.5627V31.7083H43.5188Z"
      fill="white"
    />
    <path
      d="M59.3145 28.408C59.3554 28.8992 59.4629 29.3188 59.6369 29.6667C59.8211 30.0044 60.0513 30.2807 60.3276 30.4956C60.6142 30.7106 60.9417 30.8692 61.3101 30.9715C61.6785 31.0636 62.0725 31.1097 62.4921 31.1097C62.9833 31.1097 63.408 31.0483 63.7662 30.9255C64.1243 30.8027 64.416 30.6389 64.6411 30.4342C64.8663 30.2193 65.03 29.9737 65.1324 29.6974C65.2449 29.4211 65.3012 29.1295 65.3012 28.8224C65.3012 28.3926 65.204 28.0447 65.0095 27.7786C64.8151 27.5125 64.5593 27.2976 64.242 27.1339C63.935 26.9599 63.5768 26.8218 63.1675 26.7194C62.7684 26.6171 62.3539 26.5199 61.9241 26.4278C61.5045 26.3254 61.09 26.2077 60.6807 26.0747C60.2816 25.9417 59.9234 25.7626 59.6062 25.5374C59.2992 25.3123 59.0484 25.0257 58.854 24.6778C58.6596 24.3196 58.5623 23.8693 58.5623 23.327C58.5623 22.9483 58.6391 22.5799 58.7926 22.2217C58.9563 21.8635 59.1917 21.5463 59.4987 21.27C59.816 20.9937 60.21 20.7737 60.6807 20.6099C61.1515 20.4462 61.6938 20.3643 62.3079 20.3643C62.9321 20.3643 63.4745 20.4513 63.935 20.6253C64.4058 20.7992 64.7946 21.0397 65.1017 21.3467C65.4087 21.6435 65.6389 21.9915 65.7924 22.3906C65.9459 22.7897 66.0227 23.2144 66.0227 23.6647H65.0249C65.0249 23.2451 64.9482 22.8818 64.7946 22.5748C64.6514 22.2678 64.4518 22.017 64.196 21.8226C63.9401 21.6282 63.6485 21.4849 63.321 21.3928C62.9935 21.3007 62.6558 21.2546 62.3079 21.2546C61.7757 21.2546 61.3254 21.3314 60.957 21.4849C60.5988 21.6282 60.3123 21.8175 60.0974 22.0529C59.8825 22.2882 59.7341 22.5492 59.6522 22.8357C59.5704 23.1223 59.555 23.4088 59.6062 23.6954C59.6676 24.0536 59.8108 24.3401 60.036 24.555C60.2611 24.7699 60.5374 24.949 60.8649 25.0923C61.1924 25.2253 61.5506 25.3379 61.9394 25.43C62.3386 25.5118 62.7428 25.604 63.1521 25.7063C63.5615 25.7984 63.9555 25.911 64.3341 26.044C64.723 26.177 65.0658 26.3561 65.3626 26.5813C65.6594 26.8064 65.8948 27.0981 66.0687 27.4562C66.2529 27.8042 66.345 28.2442 66.345 28.7764C66.345 29.7998 65.992 30.5929 65.2859 31.1557C64.5797 31.7186 63.5871 32 62.3079 32C61.7348 32 61.2026 31.9232 60.7114 31.7697C60.2202 31.6265 59.7955 31.4064 59.4373 31.1097C59.0791 30.8027 58.7977 30.4291 58.593 29.9891C58.3986 29.5388 58.3014 29.0118 58.3014 28.408H59.3145Z"
      fill="white"
    />
    <path
      d="M67.2711 20.656H75.3148V21.5463H71.8149V31.7083H70.771V21.5463H67.2711V20.656Z"
      fill="white"
    />
    <path
      d="M76.3688 26.1975C76.3688 25.389 76.4763 24.6318 76.6912 23.9256C76.9163 23.2195 77.2438 22.6055 77.6736 22.0836C78.1034 21.5514 78.6356 21.1318 79.2701 20.8248C79.9045 20.5178 80.6362 20.3643 81.4652 20.3643C82.3248 20.3643 83.077 20.5178 83.7217 20.8248C84.3767 21.1216 84.919 21.5361 85.3489 22.0682C85.7889 22.5901 86.1164 23.2093 86.3313 23.9256C86.5564 24.6318 86.669 25.389 86.669 26.1975C86.669 26.9957 86.5564 27.7479 86.3313 28.454C86.1164 29.1499 85.794 29.7639 85.3642 30.2961C84.9344 30.818 84.3971 31.2325 83.7524 31.5395C83.1077 31.8465 82.3606 32 81.5112 32C80.6618 32 79.9148 31.8465 79.2701 31.5395C78.6253 31.2325 78.0881 30.818 77.6582 30.2961C77.2284 29.7639 76.9061 29.1499 76.6912 28.454C76.4763 27.7479 76.3688 26.9957 76.3688 26.1975ZM81.5266 31.1097C82.2429 31.1097 82.857 30.9766 83.3686 30.7106C83.8906 30.4342 84.3153 30.071 84.6427 29.6207C84.9804 29.1704 85.2261 28.6485 85.3796 28.0549C85.5433 27.4614 85.6252 26.8422 85.6252 26.1975C85.6252 25.43 85.5279 24.7443 85.3335 24.1405C85.1493 23.5265 84.8781 23.0046 84.5199 22.5748C84.1618 22.145 83.7268 21.8175 83.2151 21.5924C82.7035 21.3672 82.1304 21.2546 81.4959 21.2546C80.7898 21.2546 80.1757 21.3928 79.6538 21.6691C79.1421 21.9454 78.7174 22.3138 78.3797 22.7743C78.0522 23.2246 77.8066 23.7465 77.6429 24.3401C77.4894 24.9336 77.4126 25.5528 77.4126 26.1975C77.4126 26.8525 77.4894 27.4767 77.6429 28.0703C77.8066 28.6638 78.0522 29.1857 78.3797 29.636C78.7174 30.0863 79.1421 30.4445 79.6538 30.7106C80.1757 30.9766 80.8 31.1097 81.5266 31.1097Z"
      fill="white"
    />
    <path
      d="M93.029 25.7984C93.4179 25.7984 93.7761 25.7575 94.1036 25.6756C94.4413 25.5937 94.7329 25.4658 94.9785 25.2918C95.2242 25.1076 95.4186 24.8774 95.5619 24.6011C95.7051 24.3247 95.7768 23.9921 95.7768 23.6033C95.7768 23.1939 95.7 22.8562 95.5465 22.5901C95.4032 22.3241 95.2037 22.1143 94.9479 21.9608C94.7022 21.8073 94.4157 21.6998 94.0882 21.6384C93.771 21.577 93.4384 21.5463 93.0904 21.5463H89.7747V25.7984H93.029ZM89.7747 26.6887V31.7083H88.7309V20.656H93.0597C94.2775 20.656 95.2088 20.8862 95.8535 21.3467C96.4983 21.797 96.8206 22.5338 96.8206 23.5572C96.8206 24.2531 96.6773 24.8057 96.3908 25.2151C96.1145 25.6244 95.6591 25.9724 95.0246 26.2589C95.3521 26.3715 95.6079 26.5352 95.7921 26.7501C95.9763 26.965 96.1145 27.2106 96.2066 27.4869C96.2987 27.7633 96.355 28.0549 96.3754 28.3619C96.4061 28.6689 96.4266 28.9657 96.4368 29.2523C96.4471 29.6718 96.4624 30.0198 96.4829 30.2961C96.5136 30.5724 96.5443 30.7975 96.575 30.9715C96.6159 31.1455 96.662 31.2836 96.7132 31.386C96.7643 31.4781 96.8257 31.5497 96.8974 31.6009V31.7083H95.7461C95.6335 31.5241 95.5516 31.2683 95.5005 30.9408C95.4595 30.6133 95.4237 30.2705 95.393 29.9123C95.3725 29.5541 95.3521 29.2062 95.3316 28.8685C95.3214 28.5308 95.2958 28.2545 95.2549 28.0396C95.1935 27.7428 95.0911 27.5074 94.9479 27.3334C94.8148 27.1492 94.6511 27.0111 94.4566 26.919C94.2622 26.8269 94.0422 26.7655 93.7966 26.7348C93.5612 26.7041 93.3156 26.6887 93.0597 26.6887H89.7747Z"
      fill="white"
    />
    <path
      d="M98.9849 31.7083V20.656H106.338V21.5463H100.029V25.5374H105.724V26.4278H100.029V30.818H106.491V31.7083H98.9849Z"
      fill="white"
    />
  </svg>